<svg width="20" height="20" viewBox="0 0 20 20" fill="none" xmlns="http://www.w3.org/2000/svg">
<path fill-rule="evenodd" clip-rule="evenodd" d="M10 0.000244141C4.477 0.000244141 0 4.48424 0 10.0172C0 14.4422 2.865 18.1972 6.839 19.5212C7.339 19.6132 7.521 19.3042 7.521 19.0382C7.521 18.8012 7.513 18.1702 7.508 17.3352C4.726 17.9402 4.139 15.9922 4.139 15.9922C3.685 14.8342 3.029 14.5262 3.029 14.5262C2.121 13.9062 3.098 13.9182 3.098 13.9182C4.101 13.9882 4.629 14.9502 4.629 14.9502C5.521 16.4802 6.97 16.0382 7.539 15.7822C7.631 15.1352 7.889 14.6942 8.175 14.4442C5.955 14.1912 3.62 13.3312 3.62 9.49324C3.62 8.40024 4.01 7.50524 4.649 6.80524C4.546 6.55224 4.203 5.53324 4.747 4.15524C4.747 4.15524 5.587 3.88524 7.497 5.18124C8.31277 4.95876 9.15444 4.84544 10 4.84424C10.85 4.84824 11.705 4.95924 12.504 5.18124C14.413 3.88524 15.251 4.15424 15.251 4.15424C15.797 5.53324 15.453 6.55224 15.351 6.80524C15.991 7.50524 16.379 8.40024 16.379 9.49324C16.379 13.3412 14.04 14.1882 11.813 14.4362C12.172 14.7452 12.491 15.3562 12.491 16.2912C12.491 17.6292 12.479 18.7102 12.479 19.0382C12.479 19.3062 12.659 19.6182 13.167 19.5202C15.1583 18.8524 16.8893 17.5756 18.1155 15.8703C19.3416 14.165 20.0009 12.1176 20 10.0172C20 4.48424 15.522 0.000244141 10 0.000244141Z" fill="#7893B0"/>
</svg>
