<svg width="20" height="20" viewBox="0 0 20 20" fill="none" xmlns="http://www.w3.org/2000/svg">
<path d="M18.5195 0.000244141H1.47656C0.660156 0.000244141 0 0.644775 0 1.44165V18.5549C0 19.3518 0.660156 20.0002 1.47656 20.0002H18.5195C19.3359 20.0002 20 19.3518 20 18.5588V1.44165C20 0.644775 19.3359 0.000244141 18.5195 0.000244141ZM5.93359 17.0432H2.96484V7.49634H5.93359V17.0432ZM4.44922 6.19556C3.49609 6.19556 2.72656 5.42603 2.72656 4.47681C2.72656 3.52759 3.49609 2.75806 4.44922 2.75806C5.39844 2.75806 6.16797 3.52759 6.16797 4.47681C6.16797 5.42212 5.39844 6.19556 4.44922 6.19556ZM17.043 17.0432H14.0781V12.4026C14.0781 11.2971 14.0586 9.87134 12.5352 9.87134C10.9922 9.87134 10.7578 11.0784 10.7578 12.3245V17.0432H7.79688V7.49634H10.6406V8.80103H10.6797C11.0742 8.05103 12.043 7.25806 13.4844 7.25806C16.4883 7.25806 17.043 9.23462 17.043 11.8049V17.0432V17.0432Z" fill="#7893B0"/>
</svg>
