<svg width="20" height="20" viewBox="0 0 20 20" fill="none" xmlns="http://www.w3.org/2000/svg">
<path fill-rule="evenodd" clip-rule="evenodd" d="M10 0.000244141C4.47939 0.000244141 0 4.47964 0 10.0002C0 15.5209 4.47939 20.0002 10 20.0002C15.5098 20.0002 20 15.5209 20 10.0002C20 4.47964 15.5098 0.000244141 10 0.000244141ZM16.6052 4.60979C17.7983 6.06315 18.5141 7.91781 18.5358 9.92431C18.2538 9.87012 15.4338 9.29524 12.5922 9.65318C12.5271 9.51218 12.4729 9.36031 12.4078 9.20849C12.2343 8.79637 12.0391 8.37337 11.8438 7.97206C14.9891 6.69224 16.4208 4.8484 16.6052 4.60979ZM10 1.4753C12.1692 1.4753 14.154 2.28875 15.6616 3.62281C15.5097 3.83973 14.2191 5.56424 11.1822 6.70306C9.78306 4.13256 8.23213 2.02844 7.9935 1.70306C8.63338 1.55122 9.30587 1.4753 10 1.4753ZM6.36662 2.2779C6.59437 2.58159 8.11281 4.69656 9.53363 7.21281C5.5423 8.27574 2.01736 8.25406 1.63774 8.25406C2.19089 5.60762 3.98047 3.40588 6.36662 2.2779ZM1.45336 10.0111C1.45336 9.92431 1.45336 9.83756 1.45336 9.75081C1.82213 9.76162 5.96529 9.81587 10.2278 8.53606C10.4773 9.01324 10.705 9.50131 10.9219 9.98937C10.8134 10.0219 10.6941 10.0545 10.5857 10.087C6.18221 11.5078 3.83948 15.3907 3.64425 15.7161C2.2885 14.2085 1.45336 12.202 1.45336 10.0111ZM10 18.5469C8.026 18.5469 6.20391 17.8744 4.76139 16.7464C4.91323 16.4319 6.64856 13.0914 11.4642 11.4102C11.4859 11.3994 11.4968 11.3994 11.5184 11.3886C12.7223 14.5013 13.2104 17.1152 13.3406 17.8636C12.3102 18.3082 11.1822 18.5469 10 18.5469ZM14.7614 17.0827C14.6746 16.5621 14.2191 14.0675 13.1019 10.9981C15.7809 10.5751 18.1236 11.2692 18.4165 11.3669C18.0478 13.7421 16.6811 15.792 14.7614 17.0827Z" fill="#7893B0"/>
</svg>
