<svg width="198" height="24" viewBox="0 0 198 24" fill="none" xmlns="http://www.w3.org/2000/svg">
<path d="M12.024 0.777954H16.3657L16.4992 0.911429V23.0879L16.3657 23.2214H0.133475L0 23.0886V18.2793C0 14.5713 2.33826 11.8774 7.01409 10.1967C10.2203 8.91645 11.8234 7.42447 11.8234 5.72143L11.8905 4.78641V0.911429L12.024 0.777954ZM4.60944 18.6126H11.8905V12.6007H11.8234C8.07141 14.2932 6.02316 15.4064 5.67794 15.9403C4.96514 16.7761 4.60944 17.6671 4.60944 18.6126Z" fill="#0184FF"/>
<path d="M18.3029 0.777954H22.6454L22.7775 0.911429V4.78571C22.7775 6.88987 23.6238 8.2924 25.3163 8.99402C26.1172 9.45036 27.8097 10.2743 30.394 11.4658C33.2438 13.0577 34.6687 15.3289 34.6687 18.2793V23.0886L34.5352 23.2221H30.1934L30.0599 23.0886V19.2814C30.0599 17.0102 29.1249 15.4966 27.2534 14.7391L22.8446 12.6014H22.7775V23.0886L22.6454 23.2221H18.3029L18.1694 23.0886V0.911429L18.3029 0.777954Z" fill="#0184FF"/>
<path d="M49.3093 19.8069H44.8687C44.7582 19.8069 44.6687 19.7173 44.6687 19.6069V6.91597C44.6687 6.80552 44.7582 6.71598 44.8687 6.71598H49.3477C50.6644 6.71598 51.798 6.97805 52.7482 7.5022C53.6985 8.02208 54.4294 8.76995 54.9407 9.74581C55.4563 10.7217 55.7142 11.8893 55.7142 13.2486C55.7142 14.6123 55.4563 15.7842 54.9407 16.7643C54.4294 17.7444 53.6943 18.4965 52.7355 19.0207C51.7809 19.5448 50.6389 19.8069 49.3093 19.8069ZM47.4365 17.2354C47.4365 17.3459 47.526 17.4354 47.6365 17.4354H49.1943C50.0125 17.4354 50.7007 17.2905 51.2589 17.0008C51.8214 16.7067 52.2433 16.2529 52.5245 15.6393C52.81 15.0214 52.9528 14.2245 52.9528 13.2486C52.9528 12.2813 52.81 11.4908 52.5245 10.8772C52.2433 10.2636 51.8235 9.81186 51.2653 9.52208C50.7071 9.23231 50.0188 9.08742 49.2007 9.08742H47.6365C47.526 9.08742 47.4365 9.17697 47.4365 9.28742V17.2354Z" fill="#152B47"/>
<path d="M62.1493 19.9986C61.1565 19.9986 60.2978 19.7877 59.5734 19.3658C58.8532 18.9397 58.2971 18.3474 57.905 17.5888C57.513 16.8261 57.317 15.9418 57.317 14.9361C57.317 13.9219 57.513 13.0356 57.905 12.2771C58.2971 11.5143 58.8532 10.9219 59.5734 10.5001C60.2978 10.0739 61.1565 9.86086 62.1493 9.86086C63.1422 9.86086 63.9988 10.0739 64.719 10.5001C65.4434 10.9219 66.0016 11.5143 66.3937 12.2771C66.7857 13.0356 66.9817 13.9219 66.9817 14.9361C66.9817 15.9418 66.7857 16.8261 66.3937 17.5888C66.0016 18.3474 65.4434 18.9397 64.719 19.3658C63.9988 19.7877 63.1422 19.9986 62.1493 19.9986ZM62.1621 17.8893C62.6138 17.8893 62.991 17.7614 63.2935 17.5057C63.5961 17.2458 63.8241 16.8921 63.9775 16.4447C64.1351 15.9972 64.214 15.488 64.214 14.917C64.214 14.3459 64.1351 13.8367 63.9775 13.3893C63.8241 12.9418 63.5961 12.5881 63.2935 12.3282C62.991 12.0682 62.6138 11.9383 62.1621 11.9383C61.7062 11.9383 61.3226 12.0682 61.0116 12.3282C60.7047 12.5881 60.4725 12.9418 60.3148 13.3893C60.1614 13.8367 60.0847 14.3459 60.0847 14.917C60.0847 15.488 60.1614 15.9972 60.3148 16.4447C60.4725 16.8921 60.7047 17.2458 61.0116 17.5057C61.3226 17.7614 61.7062 17.8893 62.1621 17.8893Z" fill="#152B47"/>
<path d="M75.0485 15.6265V10.1887C75.0485 10.0782 75.138 9.9887 75.2485 9.9887H77.5715C77.682 9.9887 77.7715 10.0782 77.7715 10.1887V19.6069C77.7715 19.7173 77.682 19.8069 77.5715 19.8069H75.3572C75.2467 19.8069 75.1572 19.7173 75.1572 19.6069V18.0841C75.1572 18.0507 75.13 18.0235 75.0965 18.0235C75.0714 18.0235 75.049 18.039 75.0397 18.0623C74.8166 18.6196 74.4531 19.069 73.9491 19.4106C73.4377 19.76 72.8134 19.9347 72.0762 19.9347C71.4199 19.9347 70.8425 19.7856 70.344 19.4873C69.8454 19.189 69.4555 18.765 69.1742 18.2153C68.8972 17.6655 68.7566 17.0072 68.7523 16.2401V10.1887C68.7523 10.0782 68.8419 9.9887 68.9523 9.9887H71.2753C71.3858 9.9887 71.4753 10.0782 71.4753 10.1887V15.7543C71.4796 16.3339 71.6351 16.792 71.942 17.1286C72.2488 17.4653 72.66 17.6336 73.1756 17.6336C73.5038 17.6336 73.8106 17.559 74.0961 17.4099C74.3816 17.2565 74.6117 17.0306 74.7864 16.7323C74.9654 16.434 75.0528 16.0654 75.0485 15.6265Z" fill="#152B47"/>
<path d="M84.3729 23.6932C83.4908 23.6932 82.7344 23.5718 82.1037 23.3289C81.4773 23.0903 80.9787 22.7643 80.608 22.3509C80.2882 21.9943 80.0651 21.5997 79.9387 21.167C79.906 21.0551 79.9844 20.9442 80.1 20.9286L82.2485 20.6396C82.3398 20.6273 82.4266 20.6798 82.4692 20.7616C82.5436 20.9044 82.6433 21.04 82.7685 21.1684C82.9347 21.3388 83.1541 21.4752 83.4269 21.5775C83.7039 21.684 84.0405 21.7373 84.4368 21.7373C85.0291 21.7373 85.5171 21.5924 85.9006 21.3026C86.2884 21.0171 86.4823 20.5377 86.4823 19.8644V18.1378C86.4823 18.0994 86.4511 18.0682 86.4127 18.0682C86.3851 18.0682 86.3601 18.0846 86.3485 18.1097C86.2295 18.3672 86.0568 18.6111 85.8303 18.8417C85.5916 19.0846 85.2848 19.2827 84.9098 19.4361C84.5348 19.5896 84.0874 19.6663 83.5675 19.6663C82.8303 19.6663 82.1591 19.4958 81.554 19.1549C80.9531 18.8097 80.4737 18.2834 80.1158 17.5761C79.7621 16.8644 79.5853 15.9653 79.5853 14.8786C79.5853 13.7664 79.7664 12.8374 80.1286 12.0917C80.4908 11.3459 80.9723 10.7877 81.5732 10.417C82.1783 10.0462 82.8409 9.86086 83.5611 9.86086C84.1108 9.86086 84.571 9.95461 84.9418 10.1421C85.3125 10.3254 85.6108 10.5555 85.8367 10.8325C86.0564 11.0928 86.2275 11.3493 86.3501 11.602C86.3607 11.6238 86.3827 11.6379 86.407 11.6379C86.4415 11.6379 86.4695 11.6099 86.4695 11.5753V10.1887C86.4695 10.0782 86.559 9.9887 86.6695 9.9887H88.9733C89.0838 9.9887 89.1733 10.0782 89.1733 10.1887V19.9028C89.1733 20.738 88.9688 21.4369 88.5597 21.9994C88.1506 22.5619 87.5838 22.9837 86.8594 23.265C86.1392 23.5505 85.3104 23.6932 84.3729 23.6932ZM84.4304 17.6208C84.8693 17.6208 85.2401 17.5121 85.5426 17.2948C85.8495 17.0732 86.0838 16.7579 86.2458 16.3488C86.412 15.9354 86.4951 15.4411 86.4951 14.8658C86.4951 14.2905 86.4141 13.792 86.2522 13.3701C86.0902 12.944 85.8558 12.6137 85.549 12.3793C85.2422 12.145 84.8693 12.0278 84.4304 12.0278C83.983 12.0278 83.6058 12.1492 83.299 12.3921C82.9922 12.6307 82.76 12.9631 82.6023 13.3893C82.4446 13.8154 82.3658 14.3076 82.3658 14.8658C82.3658 15.4326 82.4446 15.9227 82.6023 16.336C82.7642 16.7451 82.9965 17.0626 83.299 17.2884C83.6058 17.51 83.983 17.6208 84.4304 17.6208Z" fill="#152B47"/>
<path d="M93.8632 6.71598C93.9737 6.71598 94.0632 6.80552 94.0632 6.91598V19.6069C94.0632 19.7173 93.9737 19.8069 93.8632 19.8069H91.5402C91.4298 19.8069 91.3402 19.7173 91.3402 19.6069V6.91597C91.3402 6.80552 91.4298 6.71598 91.5402 6.71598H93.8632Z" fill="#152B47"/>
<path d="M99.0442 19.9923C98.4178 19.9923 97.8596 19.8836 97.3695 19.6663C96.8795 19.4447 96.4917 19.1187 96.2062 18.6883C95.9249 18.2536 95.7843 17.7124 95.7843 17.0647C95.7843 16.5192 95.8844 16.0611 96.0847 15.6904C96.285 15.3197 96.5577 15.0214 96.9029 14.7955C97.2481 14.5697 97.6401 14.3992 98.079 14.2842C98.5222 14.1691 98.9867 14.0881 99.4725 14.0413C100.044 13.9816 100.504 13.9262 100.853 13.8751C101.203 13.8197 101.456 13.7387 101.614 13.6322C101.772 13.5256 101.85 13.368 101.85 13.1592V13.1208C101.85 12.716 101.723 12.4028 101.467 12.1812C101.215 11.9596 100.857 11.8488 100.393 11.8488C99.9029 11.8488 99.513 11.9575 99.2232 12.1748C98.9808 12.3531 98.8069 12.5701 98.7017 12.826C98.6655 12.9139 98.5798 12.9746 98.4851 12.967L96.3566 12.7941C96.2362 12.7843 96.1515 12.6707 96.1836 12.5543C96.3225 12.0506 96.5559 11.6087 96.8837 11.2288C97.2587 10.7898 97.7424 10.4532 98.3347 10.2188C98.9313 9.98018 99.6216 9.86086 100.406 9.86086C100.951 9.86086 101.473 9.92478 101.972 10.0526C102.475 10.1805 102.92 10.3786 103.308 10.6471C103.7 10.9155 104.009 11.2607 104.235 11.6826C104.46 12.1002 104.573 12.6009 104.573 13.1847V19.6069C104.573 19.7173 104.484 19.8069 104.373 19.8069H102.191C102.081 19.8069 101.991 19.7173 101.991 19.6069V18.493C101.991 18.4667 101.97 18.4454 101.943 18.4454C101.925 18.4454 101.909 18.4554 101.901 18.4712C101.745 18.7674 101.538 19.0294 101.281 19.2572C101.017 19.4873 100.7 19.6684 100.329 19.8005C99.9583 19.9283 99.53 19.9923 99.0442 19.9923ZM99.8241 18.113C100.225 18.113 100.578 18.0342 100.885 17.8765C101.192 17.7146 101.433 17.4972 101.607 17.2245C101.782 16.9518 101.87 16.6428 101.87 16.2977V15.6243C101.87 15.4656 101.684 15.3558 101.533 15.4043C101.528 15.4059 101.523 15.4075 101.518 15.4092C101.373 15.4518 101.209 15.4923 101.026 15.5306C100.843 15.5647 100.659 15.5967 100.476 15.6265C100.293 15.6521 100.127 15.6755 99.9775 15.6968C99.6579 15.7437 99.3787 15.8182 99.1401 15.9205C98.9015 16.0228 98.7161 16.1613 98.584 16.336C98.4519 16.5065 98.3859 16.7195 98.3859 16.9752C98.3859 17.3459 98.5201 17.6293 98.7886 17.8254C99.0613 18.0171 99.4064 18.113 99.8241 18.113Z" fill="#152B47"/>
<path d="M114.821 12.5766C114.843 12.6905 114.757 12.7945 114.641 12.8016L112.536 12.9311C112.436 12.9373 112.349 12.868 112.317 12.7735C112.266 12.6265 112.19 12.4908 112.087 12.3665C111.947 12.1918 111.761 12.0533 111.531 11.9511C111.305 11.8445 111.035 11.7913 110.719 11.7913C110.297 11.7913 109.942 11.8807 109.652 12.0597C109.362 12.2344 109.217 12.4688 109.217 12.7629C109.217 12.9972 109.311 13.1954 109.498 13.3573C109.686 13.5192 110.008 13.6492 110.464 13.7472L112.241 14.1052C113.195 14.3012 113.907 14.6165 114.376 15.0512C114.844 15.4859 115.079 16.0569 115.079 16.7643C115.079 17.4077 114.889 17.9724 114.51 18.4582C114.135 18.944 113.619 19.3232 112.963 19.5959C112.311 19.8644 111.559 19.9986 110.707 19.9986C109.407 19.9986 108.371 19.728 107.6 19.1869C106.893 18.6838 106.455 18.0141 106.288 17.1777C106.265 17.0626 106.352 16.9571 106.469 16.951L108.758 16.8308C108.856 16.8256 108.943 16.8941 108.972 16.9886C109.07 17.3041 109.252 17.551 109.518 17.7295C109.829 17.934 110.227 18.0363 110.713 18.0363C111.19 18.0363 111.574 17.9447 111.863 17.7614C112.158 17.5739 112.307 17.3332 112.311 17.0391C112.307 16.792 112.202 16.5896 111.998 16.4319C111.793 16.27 111.478 16.1464 111.052 16.0611L109.351 15.7224C108.393 15.5306 107.679 15.1982 107.21 14.7252C106.746 14.2522 106.513 13.6492 106.513 12.9163C106.513 12.2856 106.684 11.7423 107.025 11.2863C107.37 10.8303 107.854 10.4788 108.476 10.2316C109.102 9.98444 109.835 9.86086 110.675 9.86086C111.915 9.86086 112.89 10.1229 113.602 10.6471C114.261 11.1296 114.667 11.7727 114.821 12.5766Z" fill="#152B47"/>
<path d="M122.554 19.8069C122.444 19.8069 122.354 19.7173 122.354 19.6069V6.91597C122.354 6.80552 122.444 6.71598 122.554 6.71598H123.74C123.85 6.71598 123.94 6.80552 123.94 6.91598V12.3455C123.94 12.456 124.029 12.5455 124.14 12.5455H130.72C130.83 12.5455 130.92 12.456 130.92 12.3455V6.91598C130.92 6.80552 131.009 6.71598 131.12 6.71598H132.305C132.415 6.71598 132.505 6.80552 132.505 6.91598V19.6069C132.505 19.7173 132.415 19.8069 132.305 19.8069H131.12C131.009 19.8069 130.92 19.7173 130.92 19.6069V14.1518C130.92 14.0413 130.83 13.9518 130.72 13.9518H124.14C124.029 13.9518 123.94 14.0413 123.94 14.1518V19.6069C123.94 19.7173 123.85 19.8069 123.74 19.8069H122.554Z" fill="#152B47"/>
<path d="M139.591 20.0114C138.645 20.0114 137.829 19.8026 137.142 19.385C136.461 18.9631 135.934 18.3751 135.564 17.6208C135.197 16.8623 135.014 15.9802 135.014 14.9745C135.014 13.9688 135.197 13.0825 135.564 12.3154C135.934 11.5441 136.45 10.9432 137.11 10.5129C137.775 10.0782 138.551 9.86086 139.437 9.86086C139.949 9.86086 140.453 9.94609 140.952 10.1165C141.451 10.287 141.905 10.564 142.314 10.9475C142.723 11.3268 143.049 11.8296 143.292 12.456C143.534 13.0825 143.656 13.8538 143.656 14.77V15.2092C143.656 15.3196 143.566 15.4092 143.456 15.4092H136.288C136.177 15.4092 136.088 15.3196 136.088 15.2092V14.3052C136.088 14.1947 136.177 14.1052 136.288 14.1052H141.922C142.032 14.1052 142.122 14.0156 142.117 13.9052C142.093 13.4316 141.984 13.0039 141.789 12.6222C141.572 12.1876 141.261 11.8445 140.856 11.5931C140.456 11.3417 139.983 11.216 139.437 11.216C138.836 11.216 138.316 11.3651 137.878 11.6634C137.443 11.9575 137.108 12.341 136.874 12.814C136.64 13.287 136.522 13.7941 136.522 14.3353V15.2046C136.522 15.9461 136.65 16.5746 136.906 17.0903C137.166 17.6016 137.526 17.9915 137.986 18.26C138.446 18.5242 138.981 18.6563 139.591 18.6563C139.987 18.6563 140.345 18.6009 140.664 18.4901C140.988 18.3751 141.267 18.2046 141.502 17.9788C141.696 17.7879 141.854 17.559 141.975 17.292C142.018 17.1974 142.122 17.1438 142.222 17.1719L143.305 17.4758C143.413 17.5062 143.476 17.6204 143.436 17.7256C143.279 18.1404 143.043 18.5102 142.729 18.8353C142.367 19.206 141.919 19.4958 141.387 19.7046C140.854 19.9092 140.255 20.0114 139.591 20.0114Z" fill="#152B47"/>
<path d="M147.459 13.9006V19.6069C147.459 19.7173 147.37 19.8069 147.259 19.8069H146.151C146.04 19.8069 145.951 19.7173 145.951 19.6069V10.1887C145.951 10.0782 146.04 9.9887 146.151 9.9887H147.208C147.319 9.9887 147.408 10.0782 147.408 10.1887V11.4448C147.408 11.4879 147.443 11.5228 147.486 11.5228C147.516 11.5228 147.544 11.5051 147.557 11.4777C147.787 11 148.13 10.6145 148.584 10.3211C149.053 10.0143 149.658 9.86086 150.4 9.86086C151.064 9.86086 151.646 9.99723 152.145 10.27C152.643 10.5384 153.031 10.9475 153.308 11.4972C153.585 12.0427 153.723 12.733 153.723 13.5682V19.6069C153.723 19.7173 153.634 19.8069 153.523 19.8069H152.415C152.304 19.8069 152.215 19.7173 152.215 19.6069V13.6705C152.215 12.8992 152.015 12.2984 151.614 11.868C151.213 11.4333 150.664 11.216 149.965 11.216C149.483 11.216 149.053 11.3204 148.674 11.5292C148.299 11.738 148.003 12.0427 147.785 12.4432C147.568 12.8438 147.459 13.3296 147.459 13.9006Z" fill="#152B47"/>
<path d="M156.68 19.8069C156.57 19.8069 156.48 19.7173 156.48 19.6069V10.1887C156.48 10.0782 156.57 9.9887 156.68 9.9887H157.737C157.848 9.9887 157.937 10.0782 157.937 10.1887V11.4114C157.937 11.4447 157.964 11.4717 157.998 11.4717C158.023 11.4717 158.045 11.4559 158.054 11.4324C158.236 10.9646 158.555 10.5835 159.011 10.2891C159.48 9.98657 160.008 9.83529 160.596 9.83529C160.707 9.83529 160.846 9.83742 161.012 9.84169C161.085 9.84357 161.151 9.84587 161.209 9.84858C161.311 9.85342 161.389 9.93911 161.389 10.0419V11.1388C161.389 11.2689 161.265 11.3704 161.137 11.3516C161.106 11.3471 161.073 11.3424 161.037 11.3374C160.859 11.3076 160.669 11.2927 160.469 11.2927C159.991 11.2927 159.565 11.3928 159.19 11.5931C158.819 11.7891 158.525 12.0619 158.308 12.4113C158.095 12.7565 157.988 13.1506 157.988 13.5938V19.6069C157.988 19.7173 157.899 19.8069 157.788 19.8069H156.68Z" fill="#152B47"/>
<path d="M163.377 19.8069C163.267 19.8069 163.177 19.7173 163.177 19.6069V10.1887C163.177 10.0782 163.267 9.9887 163.377 9.9887H164.486C164.596 9.9887 164.686 10.0782 164.686 10.1887V19.6069C164.686 19.7173 164.596 19.8069 164.486 19.8069H163.377ZM163.944 8.35234C163.65 8.35234 163.397 8.2522 163.184 8.05191C162.975 7.85163 162.87 7.61086 162.87 7.32961C162.87 7.04836 162.975 6.80759 163.184 6.60731C163.397 6.40703 163.65 6.30688 163.944 6.30688C164.238 6.30688 164.49 6.40703 164.699 6.60731C164.912 6.80759 165.018 7.04836 165.018 7.32961C165.018 7.61086 164.912 7.85163 164.699 8.05191C164.49 8.2522 164.238 8.35234 163.944 8.35234Z" fill="#152B47"/>
<path d="M174.348 23.4887C174.237 23.4887 174.148 23.3992 174.148 23.2887V18.3805C174.148 18.3351 174.111 18.2984 174.065 18.2984C174.037 18.2984 174.011 18.3131 173.995 18.3371C173.886 18.5096 173.737 18.7225 173.547 18.9759C173.342 19.2444 173.05 19.4852 172.671 19.6982C172.292 19.907 171.787 20.0114 171.156 20.0114C170.338 20.0114 169.616 19.8048 168.989 19.3914C168.363 18.9738 167.873 18.3857 167.519 17.6272C167.165 16.8644 166.988 15.9631 166.988 14.9234C166.988 13.8921 167.165 12.9972 167.519 12.2387C167.873 11.4802 168.365 10.8942 168.996 10.4809C169.626 10.0675 170.355 9.86086 171.182 9.86086C171.821 9.86086 172.326 9.9674 172.697 10.1805C173.072 10.3893 173.357 10.6279 173.553 10.8964C173.733 11.1341 173.877 11.334 173.985 11.4958C174.007 11.5285 174.043 11.5484 174.083 11.5484C174.147 11.5484 174.199 11.4964 174.199 11.4323V10.1887C174.199 10.0782 174.288 9.9887 174.399 9.9887H175.456C175.567 9.9887 175.656 10.0782 175.656 10.1887V23.2887C175.656 23.3992 175.567 23.4887 175.456 23.4887H174.348ZM171.361 18.6563C171.966 18.6563 172.477 18.4986 172.895 18.1833C173.312 17.8637 173.63 17.4227 173.847 16.8602C174.064 16.2934 174.173 15.6393 174.173 14.8978C174.173 14.1648 174.067 13.5235 173.854 12.9738C173.64 12.4198 173.325 11.9894 172.908 11.6826C172.49 11.3715 171.974 11.216 171.361 11.216C170.721 11.216 170.189 11.38 169.763 11.7082C169.341 12.032 169.023 12.4731 168.81 13.0313C168.601 13.5853 168.497 14.2075 168.497 14.8978C168.497 15.5967 168.604 16.2316 168.817 16.8026C169.034 17.3694 169.354 17.8211 169.775 18.1577C170.202 18.4901 170.73 18.6563 171.361 18.6563Z" fill="#152B47"/>
<path d="M184.605 15.7927V10.1887C184.605 10.0782 184.695 9.9887 184.805 9.9887H185.913C186.024 9.9887 186.113 10.0782 186.113 10.1887V19.6069C186.113 19.7173 186.024 19.8069 185.913 19.8069H184.805C184.695 19.8069 184.605 19.7173 184.605 19.6069V18.2073C184.605 18.1729 184.577 18.145 184.543 18.145C184.518 18.145 184.496 18.1591 184.486 18.1811C184.255 18.664 183.903 19.076 183.429 19.417C182.943 19.7621 182.329 19.9347 181.588 19.9347C180.974 19.9347 180.429 19.8005 179.952 19.532C179.474 19.2593 179.099 18.8502 178.827 18.3048C178.554 17.755 178.417 17.0626 178.417 16.2273V10.1887C178.417 10.0782 178.507 9.9887 178.617 9.9887H179.726C179.836 9.9887 179.926 10.0782 179.926 10.1887V16.1251C179.926 16.841 180.126 17.412 180.527 17.8381C180.932 18.2643 181.447 18.4773 182.074 18.4773C182.449 18.4773 182.83 18.3815 183.218 18.1897C183.61 17.9979 183.938 17.7039 184.202 17.3076C184.471 16.9113 184.605 16.4063 184.605 15.7927Z" fill="#152B47"/>
<path d="M192.993 20.0114C192.047 20.0114 191.231 19.8026 190.545 19.385C189.863 18.9631 189.337 18.3751 188.966 17.6208C188.599 16.8623 188.416 15.9802 188.416 14.9745C188.416 13.9688 188.599 13.0825 188.966 12.3154C189.337 11.5441 189.852 10.9432 190.513 10.5129C191.178 10.0782 191.953 9.86086 192.84 9.86086C193.351 9.86086 193.856 9.94609 194.354 10.1165C194.853 10.287 195.307 10.564 195.716 10.9475C196.125 11.3268 196.451 11.8296 196.694 12.456C196.937 13.0825 197.058 13.8538 197.058 14.77V15.2092C197.058 15.3196 196.969 15.4092 196.858 15.4092H189.69C189.58 15.4092 189.49 15.3196 189.49 15.2092V14.3052C189.49 14.1947 189.58 14.1052 189.69 14.1052H195.324C195.435 14.1052 195.525 14.0156 195.519 13.9052C195.496 13.4316 195.386 13.0039 195.192 12.6222C194.974 12.1876 194.663 11.8445 194.259 11.5931C193.858 11.3417 193.385 11.216 192.84 11.216C192.239 11.216 191.719 11.3651 191.28 11.6634C190.845 11.9575 190.511 12.341 190.276 12.814C190.042 13.287 189.925 13.7941 189.925 14.3353V15.2046C189.925 15.9461 190.053 16.5746 190.308 17.0903C190.568 17.6016 190.928 17.9915 191.389 18.26C191.849 18.5242 192.384 18.6563 192.993 18.6563C193.389 18.6563 193.747 18.6009 194.067 18.4901C194.391 18.3751 194.67 18.2046 194.904 17.9788C195.099 17.7879 195.256 17.559 195.377 17.292C195.42 17.1974 195.524 17.1438 195.624 17.1719L196.707 17.4758C196.815 17.5062 196.878 17.6204 196.838 17.7256C196.681 18.1404 196.445 18.5102 196.131 18.8353C195.769 19.206 195.322 19.4958 194.789 19.7046C194.256 19.9092 193.658 20.0114 192.993 20.0114Z" fill="#152B47"/>
</svg>
